<svg width="54" height="50" viewBox="0 0 54 50" fill="none" xmlns="http://www.w3.org/2000/svg">
<path id="Vector" d="M21.6 32.8125H21.5983C21.5983 31.2324 21.7114 31.96 14.4222 15.0869C12.933 11.6406 8.66869 11.6338 7.17694 15.0869C-0.173813 32.1045 0.0016875 31.2822 0.0016875 32.8125H0C0 37.127 4.83553 40.625 10.8 40.625C16.7645 40.625 21.6 37.127 21.6 32.8125ZM10.8 17.1875L16.875 31.25H4.725L10.8 17.1875ZM53.9983 32.8125C53.9983 31.2324 54.1114 31.96 46.8222 15.0869C45.333 11.6406 41.0687 11.6338 39.5769 15.0869C32.2262 32.1045 32.4017 31.2822 32.4017 32.8125H32.4C32.4 37.127 37.2355 40.625 43.2 40.625C49.1645 40.625 54 37.127 54 32.8125H53.9983ZM37.125 31.25L43.2 17.1875L49.275 31.25H37.125ZM44.55 43.75H29.7V14.9658C31.6837 13.9609 33.1729 11.8916 33.6142 9.375H44.55C45.2959 9.375 45.9 8.67578 45.9 7.8125V4.6875C45.9 3.82422 45.2959 3.125 44.55 3.125H32.3696C31.1378 1.23828 29.2013 0 27 0C24.7987 0 22.8622 1.23828 21.6304 3.125H9.45C8.70413 3.125 8.1 3.82422 8.1 4.6875V7.8125C8.1 8.67578 8.70413 9.375 9.45 9.375H20.3858C20.8271 11.8906 22.3155 13.9609 24.3 14.9658V43.75H9.45C8.70413 43.75 8.1 44.4492 8.1 45.3125V48.4375C8.1 49.3008 8.70413 50 9.45 50H44.55C45.2959 50 45.9 49.3008 45.9 48.4375V45.3125C45.9 44.4492 45.2959 43.75 44.55 43.75Z" fill="#EB4181"/>
</svg>
